<svg width="1906" height="149" viewBox="0 0 1906 149" fill="none" xmlns="http://www.w3.org/2000/svg">
<path d="M201.736 226L173.363 122.504L167.882 96.0655L162.401 122.504L134.35 226H62.1285L0.224182 6.75565H70.5113L95.0151 133.144L101.463 165.708L108.557 133.144L143.055 6.75565H196.577L230.753 133.144L237.846 165.708L244.295 133.144L269.121 6.75565H335.539L273.635 226H201.736ZM436.229 232.126C365.942 232.126 322.416 187.955 322.416 116.7C322.416 45.1234 365.942 0.629692 436.229 0.629692C506.516 0.629692 550.043 45.1234 550.043 116.7C550.043 187.955 506.516 232.126 436.229 232.126ZM436.229 178.927C465.892 178.927 482.657 155.713 482.657 116.7C482.657 77.3652 465.892 53.8287 436.229 53.8287C406.567 53.8287 389.801 77.3652 389.801 116.7C389.801 155.713 406.567 178.927 436.229 178.927ZM559.594 226V6.75565H655.998C710.486 6.75565 743.373 33.5164 743.373 76.0755C743.373 99.6121 734.345 116.378 718.224 127.018C726.607 134.111 732.088 144.428 735.312 157.97L751.433 226H683.403L672.118 169.899C669.217 155.068 665.348 151.521 651.484 151.521H625.368V226H559.594ZM654.708 58.3425H625.368V101.547H653.096C669.861 101.547 675.987 92.5189 675.987 79.9446C675.987 67.0478 669.539 58.3425 654.708 58.3425ZM757.894 226V6.75565H823.668V106.705L891.698 6.75565H964.887L888.796 114.121L971.657 226H891.698L823.668 131.531V226H757.894ZM1023.41 64.7909C1023.41 102.191 1149.15 68.0151 1149.15 157.325C1149.15 204.398 1109.49 232.126 1055.32 232.126C1000.51 232.126 960.212 206.655 953.763 153.133H1023.08C1025.34 171.834 1037.91 182.151 1055.97 182.151C1073.06 182.151 1081.76 176.025 1081.76 165.385C1081.76 127.662 956.02 157.003 956.02 71.8841C956.02 31.5818 988.907 0.629692 1046.62 0.629692C1094.02 0.629692 1136.9 23.199 1142.7 76.398H1072.41C1069.51 59.3098 1060.48 50.6045 1043.72 50.6045C1031.79 50.6045 1023.41 56.0856 1023.41 64.7909ZM1155.75 226V6.75565H1247.96C1305.03 6.75565 1339.53 34.806 1339.53 83.1688C1339.53 131.854 1304.39 159.582 1248.61 159.582H1221.53V226H1155.75ZM1246.68 58.3425H1221.53V107.995H1245.06C1265.05 107.995 1272.15 97.6776 1272.15 83.1688C1272.15 68.3375 1264.41 58.3425 1246.68 58.3425ZM1473.64 226L1462.68 192.146H1389.49L1378.53 226H1312.11L1388.53 6.75565H1467.52L1543.93 226H1473.64ZM1419.48 99.6121L1405.61 142.816H1446.88L1433.02 99.6121L1426.25 72.529L1419.48 99.6121ZM1736.32 81.5567H1667.65C1662.81 63.1788 1651.53 53.8287 1633.47 53.8287C1606.71 53.8287 1591.88 77.3652 1591.88 116.7C1591.88 156.035 1606.39 178.927 1633.47 178.927C1650.24 178.927 1662.49 169.899 1667 153.133H1736.32C1726.01 205.688 1685.06 232.126 1635.08 232.126C1566.73 232.126 1524.49 188.277 1524.49 116.7C1524.49 45.1234 1566.73 0.629692 1635.08 0.629692C1685.38 0.629692 1727.62 27.7128 1736.32 81.5567ZM1742.78 226V6.75565H1905.6V58.3425H1808.55V89.6171H1892.71V139.592H1808.55V174.413H1905.6V226H1742.78Z" fill="#E7E8ED"/>
</svg>
